<?xml version="1.0" encoding="UTF-8"?>
<svg version="1.1" xmlns="http://www.w3.org/2000/svg" width="535" height="342">
<path d="M0 0 C2.96383608 1.52229373 5.8739719 3.12027859 8.78173828 4.74707031 C39.72139883 21.37693746 72.89049167 32.62468905 107.20751953 39.91113281 C107.94566895 40.07564941 108.68381836 40.24016602 109.44433594 40.40966797 C111.35849483 40.83369334 113.27888818 41.22931502 115.19970703 41.62207031 C119.4403047 43.30777374 120.77620842 45.11626796 123.34423828 48.87207031 C124.63298902 52.49706813 124.48488406 56.1215511 124.50537109 59.93774414 C124.510336 60.64265488 124.5153009 61.34756561 124.52041626 62.07383728 C124.53502429 64.40893546 124.54184625 66.74396515 124.54736328 69.07910156 C124.55160435 70.28825006 124.55160435 70.28825006 124.55593109 71.52182579 C124.57093685 75.80825502 124.58015088 80.09465062 124.58447266 84.38110352 C124.58881854 87.8828394 124.60255469 91.38432351 124.62548828 94.88598633 C125.00544886 154.06181108 112.51820406 203.09195202 70.28759766 246.16113281 C62.96878666 253.53128387 55.67019851 260.64407632 47.34423828 266.87207031 C46.69616211 267.3694873 46.04808594 267.8669043 45.38037109 268.37939453 C2.630843 301.18206104 2.630843 301.18206104 -11.65576172 299.87207031 C-14.1874294 298.93828223 -16.35694433 297.99625761 -18.71826172 296.74707031 C-19.72614746 296.22777954 -19.72614746 296.22777954 -20.75439453 295.69799805 C-35.13591569 288.07863838 -48.89443988 278.95907858 -61.65576172 268.87207031 C-62.7783267 268.01381562 -63.90208874 267.15712503 -65.02685547 266.30175781 C-72.79567926 260.35422026 -80.11324624 254.05063995 -87.18017578 247.28466797 C-88.54703186 245.97615882 -89.92515152 244.67944302 -91.30419922 243.38378906 C-97.69341072 237.22636284 -103.10883859 230.48380662 -108.45556641 223.42822266 C-109.59464454 221.95131378 -110.78421104 220.51375169 -111.97607422 219.07910156 C-113.65576172 216.87207031 -113.65576172 216.87207031 -113.65576172 214.87207031 C-112.91326172 214.17082031 -112.17076172 213.46957031 -111.40576172 212.74707031 C-105.39411983 206.46217198 -103.55802885 199.73522182 -103.45957947 191.20294189 C-103.45055794 190.53390516 -103.44153641 189.86486843 -103.4322415 189.17555785 C-103.40318992 186.9354287 -103.38093211 184.695284 -103.35864258 182.45507812 C-103.33919933 180.84859221 -103.31933732 179.24211132 -103.29908752 177.63563538 C-103.2453034 173.27448313 -103.19738636 168.91328372 -103.1505096 164.5520525 C-103.10052666 159.99427634 -103.04516593 155.43656561 -102.9903717 150.87884521 C-102.88743022 142.24814845 -102.78933659 133.61740364 -102.69297749 124.98663116 C-102.58304054 115.16080425 -102.46771009 105.33504298 -102.35192287 95.50928354 C-102.11386077 75.29694647 -101.88258394 55.08453644 -101.65576172 34.87207031 C-100.87735271 34.64380051 -100.09894369 34.4155307 -99.29694653 34.18034363 C-95.73970426 33.13580549 -92.18344699 32.08795121 -88.62719727 31.04003906 C-87.40262566 30.68099487 -86.17805405 30.32195068 -84.91637421 29.95202637 C-76.9343603 27.59673595 -69.14773055 25.0922719 -61.46826172 21.87207031 C-60.4432959 21.45183594 -59.41833008 21.03160156 -58.36230469 20.59863281 C-49.90850339 17.08453496 -41.73371495 13.17122346 -33.65576172 8.87207031 C-31.08331615 7.51474466 -28.51002196 6.15903903 -25.93652344 4.80371094 C-24.24210257 3.90912308 -22.54962595 3.01084027 -20.859375 2.10839844 C-19.71251221 1.49834961 -19.71251221 1.49834961 -18.54248047 0.87597656 C-17.86403076 0.51318604 -17.18558105 0.15039551 -16.48657227 -0.22338867 C-10.9083683 -2.9793889 -5.58940477 -2.37387847 0 0 Z " fill="#0F4578" transform="translate(390.65576171875,20.1279296875)"/>
<path d="M0 0 C0.85799159 -0.00367669 1.71598318 -0.00735338 2.59997451 -0.01114148 C5.48013839 -0.02217023 8.36026617 -0.02602081 11.240448 -0.02983093 C13.30360529 -0.03609623 15.36676145 -0.04274309 17.42991638 -0.04974365 C24.21033951 -0.07077978 30.99076285 -0.08114609 37.77120972 -0.09111023 C40.1062814 -0.09515805 42.44135297 -0.09927498 44.77642441 -0.10346031 C55.74774557 -0.12251152 66.71906 -0.13674233 77.69039452 -0.14507228 C90.34974684 -0.15484279 103.00892423 -0.18115791 115.66821492 -0.22157317 C125.45605814 -0.2517475 135.24385125 -0.26654244 145.03174007 -0.26985329 C150.87607832 -0.2722024 156.72022967 -0.28114484 162.56451797 -0.30631447 C168.06553276 -0.32962284 173.56623795 -0.33381714 179.06728935 -0.32355309 C181.08202457 -0.32305828 183.09677517 -0.32936231 185.11146355 -0.34310913 C206.70571112 -0.48216273 206.70571112 -0.48216273 214.97824097 6.04170227 C215.48484253 6.67463196 215.99144409 7.30756165 216.51339722 7.95967102 C217.03804565 8.58486633 217.56269409 9.21006165 218.10324097 9.85420227 C223.19281407 17.7788161 223.01122227 24.86184512 222.97994995 34.10346985 C222.98565785 35.62520854 222.99262373 37.14694295 223.00074768 38.66867065 C223.01865091 42.78869293 223.01751573 46.90850189 223.0118053 51.02855134 C223.00870841 54.47512576 223.01481167 57.92165951 223.02084404 61.36822814 C223.03487922 69.50429383 223.03333723 77.64025451 223.02194214 85.77632141 C223.01047006 94.15209841 223.02452347 102.52755486 223.05133861 110.90328962 C223.0735403 118.10949506 223.08012271 125.31560022 223.0742622 132.52183741 C223.0709011 136.81905746 223.07325073 141.11607223 223.09051323 145.41326332 C223.10605106 149.45751322 223.10195174 153.50129098 223.08320808 157.54552269 C223.07954059 159.0232675 223.08257661 160.50104783 223.09309387 161.97875977 C223.16146101 172.38544614 222.4972535 181.17923466 215.20089722 189.08467102 C207.72209851 195.87631515 200.29779863 196.29908502 190.68136597 196.24482727 C189.73401077 196.24341232 188.78665558 196.24199738 187.81059265 196.24053955 C184.79482827 196.23495713 181.77913904 196.22240784 178.76339722 196.20967102 C176.71457017 196.20465375 174.66574195 196.20009124 172.61691284 196.19599915 C167.60321216 196.18499345 162.58956742 196.1677409 157.57589722 196.14717102 C158.05800659 195.05017883 158.54011597 193.95318665 159.03683472 192.82295227 C159.67489782 191.36854373 160.3129163 189.91411561 160.95089722 188.45967102 C161.26800659 187.73844055 161.58511597 187.01721008 161.91183472 186.27412415 C163.52792523 182.58741767 165.11126019 178.89752946 166.57589722 175.14717102 C168.06754395 175.10958679 168.06754395 175.10958679 169.58932495 175.07124329 C173.26638469 174.9773222 176.94324871 174.87706484 180.62008667 174.77485657 C182.21379022 174.73144956 183.80754202 174.68977883 185.40133667 174.64985657 C187.6875363 174.59229295 189.97349171 174.52855953 192.25949097 174.46357727 C193.33450111 174.43850853 193.33450111 174.43850853 194.43122864 174.41293335 C197.79117104 174.59698448 197.79117104 174.59698448 200.57589722 173.14717102 C200.68479452 171.19856596 200.72279722 169.24598528 200.7341156 167.29437256 C200.74390442 166.02246063 200.75369324 164.75054871 200.76377869 163.44009399 C200.76968365 162.01750221 200.77549405 160.59491003 200.78121948 159.1723175 C200.79079257 157.68450139 200.80080231 156.19668802 200.81121826 154.70887756 C200.83833513 150.65743065 200.85930784 146.605972 200.87922025 142.55448413 C200.90103812 138.32502763 200.92844728 134.09560756 200.95527649 129.86618042 C201.00526034 121.85160022 201.05017797 113.83699986 201.09329885 105.82238013 C201.14262269 96.70037831 201.19755876 87.57841303 201.25297844 78.45644653 C201.36688584 59.68672193 201.47370571 40.91696288 201.57589722 22.14717102 C174.60372157 22.12384543 147.63154743 22.10619352 120.65936375 22.09535885 C108.1366651 22.09019517 95.61397271 22.0831511 83.09127808 22.07173157 C72.18078782 22.06178693 61.27030209 22.05531812 50.35980743 22.05308253 C44.57892702 22.05177504 38.79805957 22.04868683 33.0171833 22.04144096 C27.58281858 22.03468422 22.14847222 22.03255335 16.7141037 22.03406334 C14.71333911 22.03378685 12.71257395 22.03177969 10.71181297 22.02796555 C7.99274303 22.02303369 5.27374362 22.02417084 2.55467224 22.0269165 C1.35090206 22.02254724 1.35090206 22.02254724 0.12281328 22.01808971 C-3.44606356 21.69512981 -3.44606356 21.69512981 -6.42410278 23.14717102 C-6.52073251 25.08345402 -6.54597422 27.02331365 -6.5443573 28.96200562 C-6.54573196 30.22550339 -6.54710663 31.48900116 -6.54852295 32.79078674 C-6.54498334 34.20393395 -6.54134852 35.61708092 -6.53762817 37.03022766 C-6.53734631 38.50818886 -6.53750402 39.98615021 -6.53807068 41.46411133 C-6.53835868 45.4887293 -6.53246149 49.51331774 -6.52549672 53.53792882 C-6.51926367 57.73933467 -6.51865942 61.94074112 -6.51747131 66.14215088 C-6.51435785 74.10363359 -6.50614427 82.06510264 -6.49612182 90.02657932 C-6.48496114 99.08809691 -6.47945035 108.14961514 -6.47442639 117.21113789 C-6.46396167 135.85649003 -6.44636194 154.50182943 -6.42410278 173.14717102 C-3.47998251 174.61923115 -0.46124363 174.38524294 2.77120972 174.46357727 C3.83237503 174.49474892 3.83237503 174.49474892 4.91497803 174.52655029 C7.17685147 174.5919818 9.43884184 174.65090076 11.70089722 174.70967102 C13.23346144 174.75286235 14.76601379 174.79647684 16.29855347 174.8405304 C20.05754795 174.94765657 23.81666014 175.04894192 27.57589722 175.14717102 C27.89042847 175.99279602 28.20495972 176.83842102 28.52902222 177.70967102 C28.95699097 178.84404602 29.38495972 179.97842102 29.82589722 181.14717102 C30.24355347 182.26092102 30.66120972 183.37467102 31.09152222 184.52217102 C32.72494251 188.51115531 34.59604598 192.32161154 36.57589722 196.14717102 C30.65350121 196.24681659 24.73160428 196.31900366 18.80856323 196.36689758 C16.79805997 196.38688495 14.78761388 196.41408428 12.77731323 196.44892883 C-12.54757439 196.87656538 -12.54757439 196.87656538 -21.36160278 188.95967102 C-28.67556465 180.38430766 -29.00744891 171.89653971 -28.94168091 160.94795227 C-28.94710945 159.42429437 -28.9542362 157.90064172 -28.96292114 156.3769989 C-28.98107063 152.26122402 -28.97412191 148.14585269 -28.9614048 144.03007126 C-28.95123347 139.71012586 -28.96068191 135.39021357 -28.96694946 131.07026672 C-28.97421389 123.81751848 -28.96466991 116.5649335 -28.94558716 109.31221008 C-28.92382068 100.94317573 -28.93087291 92.57453124 -28.95289278 84.20550632 C-28.97108123 77.00266224 -28.97358831 69.7999351 -28.9631381 62.59707546 C-28.95692206 58.30272474 -28.95601523 54.0085569 -28.96928406 49.71421814 C-28.9808923 45.67566932 -28.97272692 41.63762011 -28.94970703 37.59912491 C-28.94444634 36.12257845 -28.9458882 34.64598949 -28.95475769 33.1694603 C-29.00851511 23.30624433 -28.10534461 15.82527838 -22.11160278 7.83467102 C-15.50715393 1.23022217 -9.06302843 -0.00208205 0 0 Z " fill="#F4751C" transform="translate(50.424102783203125,37.85282897949219)"/>
<path d="M0 0 C10.44656276 8.98890284 18.99548245 21.7920768 20.98046875 35.70703125 C22.10009421 51.55130845 19.94645729 65.2123036 10.98046875 78.70703125 C9.44921875 80.32421875 9.44921875 80.32421875 8.04296875 81.58203125 C7.36234375 82.28328125 6.68171875 82.98453125 5.98046875 83.70703125 C6.3811048 87.15458546 7.45294518 90.32996808 8.59106445 93.59814453 C8.91843094 94.54327911 9.24579742 95.4884137 9.58308411 96.46218872 C9.93722885 97.47368988 10.2913736 98.48519104 10.65625 99.52734375 C11.02268112 100.5817868 11.38911224 101.63622986 11.76664734 102.72262573 C12.93902542 106.09350259 14.11602945 109.46274461 15.29296875 112.83203125 C16.07385122 115.07672431 16.8544532 117.32151497 17.63476562 119.56640625 C18.39167567 121.74097294 19.14882949 123.9154548 19.90625 126.08984375 C20.25432205 127.08919952 20.6023941 128.0885553 20.96101379 129.11819458 C21.29783676 130.08224213 21.63465973 131.04628967 21.98168945 132.03955078 C22.30787262 132.97462463 22.63405579 133.90969849 22.97012329 134.87310791 C23.66773185 136.82983387 24.38619899 138.77920437 25.12142944 140.72210693 C25.48765411 141.69150208 25.85387878 142.66089722 26.23120117 143.65966797 C26.56496262 144.52502167 26.89872406 145.39037537 27.24259949 146.2819519 C28.4598987 150.28272456 28.15998919 152.68278505 26.98046875 156.70703125 C24.40481447 160.37538735 22.78867035 161.49604057 18.44921875 162.62890625 C12.75997101 163.19763692 8.46625732 160.58546446 3.54296875 158.01953125 C1.51565402 157.01035836 -0.51169087 156.00124607 -2.5390625 154.9921875 C-4.69932356 153.8973422 -6.85947662 152.80228376 -9.01953125 151.70703125 C-13.55024286 149.43425228 -18.09436833 147.19055338 -22.64453125 144.95703125 C-24.23479126 144.1513269 -24.23479126 144.1513269 -25.85717773 143.3293457 C-26.85177002 142.84038818 -27.8463623 142.35143066 -28.87109375 141.84765625 C-29.74588379 141.40969727 -30.62067383 140.97173828 -31.52197266 140.52050781 C-36.64488723 138.85192997 -40.64357398 141.32305223 -45.25390625 143.5859375 C-46.14052696 144.01814102 -46.14052696 144.01814102 -47.0450592 144.45907593 C-48.3050424 145.07395491 -49.56380925 145.69133168 -50.82144165 146.31100464 C-52.78212042 147.27572555 -54.74711664 148.23105845 -56.71362305 149.18383789 C-62.30723438 151.89686483 -67.88908609 154.62897853 -73.4296875 157.44921875 C-74.19120117 157.82876709 -74.95271484 158.20831543 -75.73730469 158.59936523 C-77.08099123 159.26979905 -78.4171935 159.95557623 -79.74316406 160.66040039 C-84.65669569 163.08577197 -87.8182663 162.84956853 -93.01953125 161.70703125 C-96.56824217 159.21538316 -97.77561137 157.58843337 -98.93164062 153.41113281 C-99.59487185 146.79047599 -96.68751865 140.62791386 -94.48828125 134.50390625 C-94.01186361 133.13548145 -93.53724218 131.76643011 -93.06433105 130.39678955 C-91.82191038 126.80952272 -90.56144677 123.22890774 -89.29510498 119.65002441 C-87.26500529 113.90976457 -85.25311501 108.16331509 -83.25941467 102.41031647 C-82.56024961 100.40604882 -81.84754624 98.40696374 -81.13366699 96.40789795 C-80.70992798 95.19273499 -80.28618896 93.97757202 -79.84960938 92.72558594 C-79.47130981 91.65717468 -79.09301025 90.58876343 -78.70324707 89.48797607 C-78.00707207 86.65635481 -77.94985571 85.3745543 -79.01953125 82.70703125 C-80.05357797 81.17263935 -81.1437502 79.67544132 -82.26953125 78.20703125 C-90.84982109 66.2087204 -94.56422133 52.13773782 -92.58984375 37.52734375 C-89.69954533 21.50581303 -82.11280773 8.39516058 -69.18359375 -1.453125 C-47.05455036 -16.0508553 -21.5505647 -16.36504719 0 0 Z M-64.01953125 21.70703125 C-71.10830101 30.61474193 -73.19912989 40.47403508 -72.01953125 51.70703125 C-69.70987207 62.12799348 -63.79167665 70.44183587 -55.04296875 76.4921875 C-46.01950758 81.90974816 -35.84430656 82.67386358 -25.65234375 80.49609375 C-16.2427776 77.67601606 -7.97899337 71.42104445 -3.0859375 62.89453125 C1.59336091 53.2959704 2.73454835 43.1791005 -0.64453125 32.95703125 C-4.87935155 22.63001333 -12.13255428 15.29198755 -22.125 10.46875 C-37.59794395 4.24766944 -53.29717886 9.99581816 -64.01953125 21.70703125 Z M-60.01953125 96.70703125 C-61.75841024 101.63265198 -63.4853919 106.5622199 -65.20141602 111.49584961 C-65.78701752 113.17407604 -66.37587047 114.85117155 -66.96801758 116.52709961 C-67.81796216 118.93444473 -68.65618077 121.34559737 -69.4921875 123.7578125 C-69.75983414 124.50791092 -70.02748077 125.25800934 -70.30323792 126.03083801 C-71.84515415 130.31839161 -71.84515415 130.31839161 -71.01953125 134.70703125 C-70.05015625 134.15015625 -69.08078125 133.59328125 -68.08203125 133.01953125 C-63.74845427 130.54452637 -59.39143898 128.11362867 -55.01953125 125.70703125 C-54.29378906 125.30726074 -53.56804687 124.90749023 -52.8203125 124.49560547 C-50.73034598 123.35782998 -48.62817597 122.24723552 -46.51953125 121.14453125 C-45.88660156 120.79841797 -45.25367188 120.45230469 -44.6015625 120.09570312 C-40.06813356 117.77196439 -36.01543801 116.59653666 -31.01953125 117.70703125 C-26.61889096 119.50715819 -22.49490943 121.7300699 -18.33203125 124.01953125 C-17.21763672 124.61443359 -16.10324219 125.20933594 -14.95507812 125.82226562 C-6.88168274 130.15161785 -6.88168274 130.15161785 -3.28979492 132.46557617 C-2.1660144 133.08009644 -2.1660144 133.08009644 -1.01953125 133.70703125 C-0.35953125 133.37703125 0.30046875 133.04703125 0.98046875 132.70703125 C-3.30953125 120.82703125 -7.59953125 108.94703125 -12.01953125 96.70703125 C-15.31953125 97.69703125 -18.61953125 98.68703125 -22.01953125 99.70703125 C-34.71152678 102.24543036 -45.96732532 101.08965159 -58.01953125 96.70703125 C-58.67953125 96.70703125 -59.33953125 96.70703125 -60.01953125 96.70703125 Z " fill="#F4731A" transform="translate(183.01953125,150.29296875)"/>
<path d="M0 0 C1.13143433 -0.0071553 2.26286865 -0.01431061 3.42858887 -0.02168274 C4.67589279 -0.02437164 5.92319672 -0.02706055 7.20829773 -0.02983093 C9.17178665 -0.03968773 9.17178665 -0.03968773 11.17494202 -0.04974365 C14.77214589 -0.06715847 18.36933646 -0.0777067 21.96657205 -0.08594918 C24.21359949 -0.09109832 26.4606228 -0.09717409 28.70764732 -0.10346031 C35.73691446 -0.12251374 42.76617109 -0.13674455 49.79545909 -0.14507228 C57.91175477 -0.15484633 66.02777785 -0.18116933 74.14397746 -0.22157317 C80.4158086 -0.25172484 86.68756156 -0.26654024 92.95946378 -0.26985329 C96.70611387 -0.27220488 100.45247278 -0.28117889 104.19904518 -0.30631447 C108.37938751 -0.33390683 112.55912017 -0.32976701 116.73954773 -0.32279968 C117.98077896 -0.33560974 119.22201019 -0.3484198 120.50085449 -0.36161804 C122.21069519 -0.35120232 122.21069519 -0.35120232 123.95507812 -0.34057617 C125.43757286 -0.3441587 125.43757286 -0.3441587 126.95001698 -0.34781361 C130.47095822 0.29339808 132.13080832 1.66499291 134.66801453 4.14717102 C136.17444635 7.74950799 136.93440344 10.00169871 136.04301453 13.83467102 C133.81553278 17.58089032 131.83507836 19.75814974 127.66801453 21.14717102 C125.90548646 21.24375988 124.13952326 21.2821175 122.37435913 21.28761292 C120.72779831 21.29617813 120.72779831 21.29617813 119.04797363 21.30491638 C117.84323898 21.30603424 116.63850433 21.3071521 115.39726257 21.30830383 C114.12874451 21.31326874 112.86022644 21.31823364 111.55326843 21.323349 C108.07174981 21.33646512 104.59025047 21.34291647 101.108711 21.34735966 C98.93286171 21.3502918 96.75701768 21.35439689 94.58117104 21.35886383 C87.77134974 21.37253702 80.96154047 21.38220441 74.1517064 21.38606572 C66.29470032 21.39054545 58.43786831 21.40809 50.58091515 21.43706632 C44.50522369 21.45869437 38.42958116 21.46877061 32.35385162 21.47010684 C28.72628799 21.47115412 25.09888802 21.47704524 21.47136497 21.49492645 C17.42311953 21.51449338 13.37523759 21.51011372 9.32695007 21.50361633 C8.12828812 21.51283112 6.92962616 21.5220459 5.69464111 21.53153992 C-1.06595835 21.49750272 -5.97502703 21.16843362 -11.20698547 16.45967102 C-12.87081728 13.03957231 -13.13325664 9.81844983 -12.33198547 6.14717102 C-8.43394798 1.32591412 -6.02905642 0.02609916 0 0 Z " fill="#F4751D" transform="translate(85.33198547363281,90.85282897949219)"/>
<path d="M0 0 C3.60443485 0.95742801 4.2611838 2.81135922 6.125 5.9765625 C9.14600579 10.47347952 11.0759232 12.42260119 16.375 13.7265625 C17.30054688 13.88253906 18.22609375 14.03851563 19.1796875 14.19921875 C21.5 14.6640625 21.5 14.6640625 23.5 16.6640625 C24.0625 18.8515625 24.0625 18.8515625 23.5 21.6640625 C22.36098322 22.67525944 21.18935278 23.65008027 20 24.6015625 C17.16065827 27.16264874 16.54370171 28.24367103 16.140625 32.12109375 C16.21215422 34.60162477 16.34518532 37.08133515 16.546875 39.5546875 C16.5 42.6640625 16.5 42.6640625 15.1484375 44.59375 C13.5 45.6640625 13.5 45.6640625 11.375 45.5390625 C8.5 44.6640625 8.5 44.6640625 6.52734375 43.77734375 C2.97116669 42.29089937 0.64801571 41.349284 -3.1640625 42.39453125 C-4.87986645 43.13602175 -6.57456058 43.92929642 -8.23828125 44.78125 C-10.8445585 45.79855338 -11.932115 45.67307691 -14.5 44.6640625 C-16.40196778 42.76209472 -15.59037999 39.06632341 -15.625 36.5390625 C-15.76156134 32.7036268 -15.89521706 29.55010593 -18.12109375 26.2890625 C-19.37122833 25.16218062 -20.65265925 24.06862818 -21.96875 23.01953125 C-23.5 21.6640625 -23.5 21.6640625 -24.0625 18.8515625 C-23.5 16.6640625 -23.5 16.6640625 -21.5 14.6640625 C-19.79715505 14.32292016 -18.08753255 14.01516478 -16.375 13.7265625 C-11.0759232 12.42260119 -9.14600579 10.47347952 -6.125 5.9765625 C-5.53976563 4.98269531 -4.95453125 3.98882812 -4.3515625 2.96484375 C-2.5 0.6640625 -2.5 0.6640625 0 0 Z " fill="#F4731A" transform="translate(147.5,170.3359375)"/>
<path d="M0 0 C-14.19 0 -28.38 0 -43 0 C-43.33 -0.66 -43.66 -1.32 -44 -2 C-38.2164102 -2.21696536 -32.43261938 -2.41384305 -26.64770508 -2.59204102 C-24.67941972 -2.65551315 -22.71130408 -2.7244949 -20.7434082 -2.79907227 C-17.91644257 -2.90525272 -15.08946089 -2.99167449 -12.26171875 -3.07421875 C-11.38037766 -3.11157639 -10.49903656 -3.14893402 -9.59098816 -3.18742371 C-8.77036392 -3.20767105 -7.94973969 -3.2279184 -7.10424805 -3.2487793 C-6.38254929 -3.27320602 -5.66085052 -3.29763275 -4.9172821 -3.32279968 C-3 -3 -3 -3 0 0 Z " fill="#F47E3A" transform="translate(87,234)"/>
<path d="M0 0 C0.66 0.99 1.32 1.98 2 3 C1 4 1 4 -2.69360352 4.11352539 C-4.33871292 4.11336624 -5.98382731 4.10766988 -7.62890625 4.09765625 C-8.92525246 4.09553383 -8.92525246 4.09553383 -10.24778748 4.09336853 C-13.01939292 4.08775239 -15.7909188 4.07519719 -18.5625 4.0625 C-20.4368478 4.05748708 -22.31119685 4.05292381 -24.18554688 4.04882812 C-28.79039544 4.03777772 -33.39518421 4.0205023 -38 4 C-38 3.67 -38 3.34 -38 3 C-25.79 2.67 -13.58 2.34 -1 2 C-0.67 1.34 -0.34 0.68 0 0 Z " fill="#F57A23" transform="translate(83,228)"/>
<path d="M0 0 C0.226875 0.515625 0.45375 1.03125 0.6875 1.5625 C2.4975553 4.92403127 4.73996404 7.92911144 7 11 C6.01 11 5.02 11 4 11 C2.39453125 9.3203125 2.39453125 9.3203125 0.8125 7.125 C0.01779297 6.04605469 0.01779297 6.04605469 -0.79296875 4.9453125 C-2 3 -2 3 -2 1 C-1.34 0.67 -0.68 0.34 0 0 Z " fill="#284878" transform="translate(279,234)"/>
<path d="M0 0 C0.66 0 1.32 0 2 0 C2.66 2.64 3.32 5.28 4 8 C3.01 7.67 2.02 7.34 1 7 C0.67 4.69 0.34 2.38 0 0 Z " fill="#F37930" transform="translate(199,270)"/>
</svg>
